<svg xmlns="http://www.w3.org/2000/svg" version="1.1" xmlns:xlink="http://www.w3.org/1999/xlink" xmlns:svgjs="http://svgjs.dev/svgjs" viewBox="0 0 16.32877041717755 3.1822699288963"><g transform="matrix(1,0,0,1,3.022238608250129,0.6080162144481502)"><rect width="16.32877041717755" height="16.32877041717755" x="-3.022238608250129" y="-7.181266458588776" fill="#ffffff"></rect><g><path d=" M 0.7365 0.3569999999999999 Q 0.7365 0.3569999999999999 0.711 0.34199999999999986 Q 0.6855 0.32699999999999985 0.6435 0.3082499999999998 Q 0.6015 0.28949999999999987 0.552 0.27449999999999986 Q 0.5025000000000001 0.25949999999999984 0.4545 0.25949999999999984 Q 0.417 0.25949999999999984 0.393 0.27149999999999985 Q 0.369 0.28349999999999986 0.369 0.31199999999999983 Q 0.369 0.33899999999999986 0.393 0.3554999999999998 Q 0.417 0.3719999999999998 0.46125 0.38549999999999984 Q 0.5055000000000001 0.3989999999999998 0.5670000000000001 0.41849999999999987 Q 0.666 0.4484999999999998 0.738 0.4874999999999998 Q 0.81 0.5264999999999999 0.849 0.5872499999999998 Q 0.888 0.6479999999999999 0.888 0.7484999999999998 Q 0.888 0.8444999999999998 0.8535 0.9097499999999998 Q 0.8190000000000001 0.9749999999999999 0.7605000000000001 1.0139999999999998 Q 0.7020000000000001 1.053 0.63 1.07025 Q 0.558 1.0875 0.483 1.0875 Q 0.40650000000000003 1.0875 0.32325 1.0717499999999998 Q 0.24 1.0559999999999998 0.162 1.0282499999999999 Q 0.084 1.0005 0.0195 0.9629999999999999 L 0.1455 0.7064999999999999 Q 0.1455 0.7064999999999999 0.17550000000000002 0.7244999999999998 Q 0.20550000000000002 0.7424999999999998 0.255 0.7649999999999999 Q 0.3045 0.7874999999999999 0.36525 0.8054999999999999 Q 0.426 0.8234999999999999 0.4875 0.8234999999999999 Q 0.5355 0.8234999999999999 0.55425 0.8107499999999999 Q 0.5730000000000001 0.7979999999999998 0.5730000000000001 0.7769999999999999 Q 0.5730000000000001 0.7454999999999998 0.54 0.7282499999999998 Q 0.507 0.7109999999999999 0.45375 0.6952499999999998 Q 0.4005 0.6794999999999998 0.336 0.6584999999999999 Q 0.243 0.6269999999999998 0.183 0.5872499999999998 Q 0.123 0.5474999999999999 0.0945 0.4927499999999998 Q 0.066 0.43799999999999983 0.066 0.3599999999999999 Q 0.066 0.24149999999999983 0.1215 0.1619999999999998 Q 0.177 0.0824999999999998 0.26775 0.04124999999999979 Q 0.3585 -2.220446049250313e-16 0.4635 -2.220446049250313e-16 Q 0.5415 -2.220446049250313e-16 0.61425 0.018749999999999822 Q 0.687 0.03749999999999987 0.75075 0.06449999999999978 Q 0.8145 0.0914999999999998 0.8625 0.11549999999999983 L 0.7365 0.3569999999999999 M 1.851006591796875 0.2639999999999998 L 1.545006591796875 0.2639999999999998 L 1.545006591796875 1.0739999999999998 L 1.252506591796875 1.0739999999999998 L 1.252506591796875 0.2639999999999998 L 0.945006591796875 0.2639999999999998 L 0.945006591796875 0.008999999999999897 L 1.851006591796875 0.008999999999999897 L 1.851006591796875 0.2639999999999998 M 1.8870622558593748 0.5324999999999999 Q 1.8870622558593748 0.43499999999999983 1.9238122558593749 0.34124999999999983 Q 1.960562255859375 0.24749999999999983 2.031062255859375 0.17099999999999982 Q 2.101562255859375 0.0944999999999998 2.202812255859375 0.04874999999999985 Q 2.304062255859375 0.0029999999999998916 2.431562255859375 0.0029999999999998916 Q 2.584562255859375 0.0029999999999998916 2.698562255859375 0.06674999999999986 Q 2.812562255859375 0.13049999999999984 2.8680622558593747 0.23549999999999982 L 2.644562255859375 0.39449999999999985 Q 2.625062255859375 0.34199999999999986 2.5883122558593747 0.3134999999999998 Q 2.551562255859375 0.2849999999999998 2.508812255859375 0.2737499999999998 Q 2.466062255859375 0.26249999999999984 2.425562255859375 0.26249999999999984 Q 2.362562255859375 0.26249999999999984 2.316812255859375 0.2872499999999998 Q 2.2710622558593747 0.31199999999999983 2.241812255859375 0.3524999999999998 Q 2.2125622558593747 0.3929999999999998 2.198312255859375 0.4424999999999998 Q 2.184062255859375 0.4919999999999999 2.184062255859375 0.5414999999999999 Q 2.184062255859375 0.5969999999999998 2.200562255859375 0.6479999999999999 Q 2.217062255859375 0.6989999999999998 2.2485622558593747 0.7387499999999998 Q 2.280062255859375 0.7784999999999999 2.325812255859375 0.8009999999999998 Q 2.371562255859375 0.8234999999999999 2.428562255859375 0.8234999999999999 Q 2.4690622558593747 0.8234999999999999 2.511062255859375 0.8107499999999999 Q 2.553062255859375 0.7979999999999998 2.5875622558593747 0.7694999999999999 Q 2.622062255859375 0.7409999999999999 2.640062255859375 0.6929999999999998 L 2.878562255859375 0.8354999999999998 Q 2.847062255859375 0.9134999999999999 2.7735622558593747 0.9689999999999999 Q 2.700062255859375 1.0244999999999997 2.607062255859375 1.0537499999999997 Q 2.514062255859375 1.0829999999999997 2.4225622558593747 1.0829999999999997 Q 2.304062255859375 1.0829999999999997 2.205812255859375 1.03575 Q 2.1075622558593747 0.9884999999999998 2.0363122558593747 0.9097499999999998 Q 1.9650622558593749 0.8309999999999998 1.926062255859375 0.7327499999999998 Q 1.8870622558593748 0.6344999999999998 1.8870622558593748 0.5324999999999999 M 3.6315307617187496 0.3569999999999999 Q 3.6315307617187496 0.3569999999999999 3.6060307617187495 0.34199999999999986 Q 3.58053076171875 0.32699999999999985 3.5385307617187496 0.3082499999999998 Q 3.4965307617187498 0.28949999999999987 3.4470307617187497 0.27449999999999986 Q 3.3975307617187496 0.25949999999999984 3.3495307617187495 0.25949999999999984 Q 3.3120307617187494 0.25949999999999984 3.2880307617187494 0.27149999999999985 Q 3.2640307617187494 0.28349999999999986 3.2640307617187494 0.31199999999999983 Q 3.2640307617187494 0.33899999999999986 3.2880307617187494 0.3554999999999998 Q 3.3120307617187494 0.3719999999999998 3.35628076171875 0.38549999999999984 Q 3.4005307617187497 0.3989999999999998 3.46203076171875 0.41849999999999987 Q 3.5610307617187495 0.4484999999999998 3.6330307617187496 0.4874999999999998 Q 3.7050307617187497 0.5264999999999999 3.74403076171875 0.5872499999999998 Q 3.7830307617187495 0.6479999999999999 3.7830307617187495 0.7484999999999998 Q 3.7830307617187495 0.8444999999999998 3.7485307617187495 0.9097499999999998 Q 3.7140307617187496 0.9749999999999999 3.6555307617187496 1.0139999999999998 Q 3.5970307617187496 1.053 3.5250307617187495 1.07025 Q 3.4530307617187495 1.0875 3.3780307617187497 1.0875 Q 3.3015307617187495 1.0875 3.2182807617187494 1.0717499999999998 Q 3.13503076171875 1.0559999999999998 3.0570307617187495 1.0282499999999999 Q 2.9790307617187497 1.0005 2.9145307617187495 0.9629999999999999 L 3.04053076171875 0.7064999999999999 Q 3.04053076171875 0.7064999999999999 3.0705307617187496 0.7244999999999998 Q 3.1005307617187494 0.7424999999999998 3.1500307617187495 0.7649999999999999 Q 3.1995307617187496 0.7874999999999999 3.2602807617187497 0.8054999999999999 Q 3.32103076171875 0.8234999999999999 3.3825307617187494 0.8234999999999999 Q 3.4305307617187495 0.8234999999999999 3.4492807617187498 0.8107499999999999 Q 3.4680307617187496 0.7979999999999998 3.4680307617187496 0.7769999999999999 Q 3.4680307617187496 0.7454999999999998 3.4350307617187497 0.7282499999999998 Q 3.4020307617187497 0.7109999999999999 3.3487807617187495 0.6952499999999998 Q 3.2955307617187497 0.6794999999999998 3.2310307617187495 0.6584999999999999 Q 3.1380307617187495 0.6269999999999998 3.0780307617187495 0.5872499999999998 Q 3.01803076171875 0.5474999999999999 2.9895307617187497 0.4927499999999998 Q 2.9610307617187495 0.43799999999999983 2.9610307617187495 0.3599999999999999 Q 2.9610307617187495 0.24149999999999983 3.01653076171875 0.1619999999999998 Q 3.0720307617187497 0.0824999999999998 3.1627807617187496 0.04124999999999979 Q 3.2535307617187494 -2.220446049250313e-16 3.3585307617187494 -2.220446049250313e-16 Q 3.4365307617187497 -2.220446049250313e-16 3.50928076171875 0.018749999999999822 Q 3.58203076171875 0.03749999999999987 3.6457807617187497 0.06449999999999978 Q 3.7095307617187494 0.0914999999999998 3.7575307617187494 0.11549999999999983 L 3.6315307617187496 0.3569999999999999" fill="#173054" fill-rule="nonzero"></path></g><g><path d=" M 0.378 1.5334874999999997 Q 0.3555 1.5079874999999996 0.318 1.4922374999999997 Q 0.2805 1.4764874999999997 0.2325 1.4764874999999997 Q 0.162 1.4764874999999997 0.12975 1.5031124999999996 Q 0.0975 1.5297374999999995 0.0975 1.5754874999999997 Q 0.0975 1.5994874999999995 0.106125 1.6148624999999996 Q 0.11475 1.6302374999999996 0.13275 1.6414874999999998 Q 0.15075 1.6527374999999997 0.178875 1.6609874999999996 Q 0.20700000000000002 1.6692374999999997 0.24525 1.6774874999999996 Q 0.28800000000000003 1.6864874999999997 0.322125 1.6977374999999997 Q 0.35625 1.7089874999999997 0.38025000000000003 1.7258624999999996 Q 0.40425 1.7427374999999996 0.417 1.7667374999999996 Q 0.42975 1.7907374999999996 0.42975 1.8267374999999997 Q 0.42975 1.8634874999999997 0.41550000000000004 1.8904874999999997 Q 0.40125 1.9174874999999996 0.37575000000000003 1.9354874999999996 Q 0.35025 1.9534874999999996 0.315 1.9621124999999997 Q 0.27975 1.9707374999999996 0.23775000000000002 1.9707374999999996 Q 0.114 1.9707374999999996 0.024 1.8934874999999995 L 0.05025 1.8507374999999997 Q 0.0645 1.8657374999999996 0.084375 1.8792374999999997 Q 0.10425 1.8927374999999997 0.128625 1.9028624999999997 Q 0.153 1.9129874999999996 0.18075 1.9186124999999996 Q 0.2085 1.9242374999999996 0.23925000000000002 1.9242374999999996 Q 0.303 1.9242374999999996 0.338625 1.9013624999999996 Q 0.37425 1.8784874999999996 0.37425 1.8319874999999997 Q 0.37425 1.8072374999999996 0.36412500000000003 1.7903624999999996 Q 0.354 1.7734874999999997 0.33375 1.7611124999999996 Q 0.3135 1.7487374999999996 0.28350000000000003 1.7397374999999997 Q 0.2535 1.7307374999999996 0.21375 1.7217374999999997 Q 0.17175 1.7119874999999996 0.14025 1.7014874999999996 Q 0.10875 1.6909874999999996 0.08700000000000001 1.6752374999999997 Q 0.06525 1.6594874999999996 0.054375 1.6373624999999996 Q 0.043500000000000004 1.6152374999999997 0.043500000000000004 1.5829874999999995 Q 0.043500000000000004 1.5462374999999997 0.057375 1.5173624999999995 Q 0.07125000000000001 1.4884874999999997 0.09675 1.4693624999999997 Q 0.12225 1.4502374999999996 0.15675 1.4401124999999997 Q 0.19125 1.4299874999999997 0.23325 1.4299874999999997 Q 0.28650000000000003 1.4299874999999997 0.328125 1.4461124999999995 Q 0.36975 1.4622374999999996 0.4035 1.4914874999999996 L 0.378 1.5334874999999997 M 0.8808709716796874 1.9197374999999997 L 0.8808709716796874 1.9662374999999996 L 0.5231209716796874 1.9662374999999996 L 0.5231209716796874 1.4337374999999997 L 0.8741209716796874 1.4337374999999997 L 0.8741209716796874 1.4802374999999997 L 0.5756209716796874 1.4802374999999997 L 0.5756209716796874 1.6722374999999996 L 0.8358709716796875 1.6722374999999996 L 0.8358709716796875 1.7164874999999997 L 0.5756209716796874 1.7164874999999997 L 0.5756209716796874 1.9197374999999997 L 0.8808709716796874 1.9197374999999997 M 0.9810025634765623 1.9662374999999996 L 0.9810025634765623 1.4337374999999997 L 1.0335025634765624 1.4337374999999997 L 1.0335025634765624 1.9197374999999997 L 1.3410025634765623 1.9197374999999997 L 1.3410025634765623 1.9662374999999996 L 0.9810025634765623 1.9662374999999996 M 1.4193834228515623 1.9662374999999996 L 1.4193834228515623 1.4337374999999997 L 1.7688834228515622 1.4337374999999997 L 1.7688834228515622 1.4802374999999997 L 1.4718834228515623 1.4802374999999997 L 1.4718834228515623 1.6759874999999997 L 1.7223834228515622 1.6759874999999997 L 1.7223834228515622 1.7194874999999996 L 1.4718834228515623 1.7194874999999996 L 1.4718834228515623 1.9662374999999996 L 1.4193834228515623 1.9662374999999996 M 1.8119780273437498 1.7854874999999997 L 1.8119780273437498 1.7382374999999997 L 2.0309780273437497 1.7382374999999997 L 2.0309780273437497 1.7854874999999997 L 1.8119780273437498 1.7854874999999997 M 2.4723629150390622 1.4802374999999997 L 2.282612915039062 1.4802374999999997 L 2.282612915039062 1.9662374999999996 L 2.2301129150390624 1.9662374999999996 L 2.2301129150390624 1.4802374999999997 L 2.0403629150390623 1.4802374999999997 L 2.0403629150390623 1.4337374999999997 L 2.4723629150390622 1.4337374999999997 L 2.4723629150390622 1.4802374999999997 M 2.6654714355468747 1.4337374999999997 L 2.709721435546875 1.4337374999999997 L 2.930971435546875 1.9662374999999996 L 2.8754714355468747 1.9662374999999996 L 2.8064714355468747 1.7997374999999995 L 2.567221435546875 1.7997374999999995 L 2.4989714355468746 1.9662374999999996 L 2.4427214355468747 1.9662374999999996 L 2.6654714355468747 1.4337374999999997 M 2.7944714355468747 1.7584874999999995 L 2.6872214355468746 1.4952374999999996 L 2.578471435546875 1.7584874999999995 L 2.7944714355468747 1.7584874999999995 M 3.201361083984375 1.9227374999999995 Q 3.251611083984375 1.9227374999999995 3.284986083984375 1.9036124999999997 Q 3.318361083984375 1.8844874999999996 3.3382360839843748 1.8533624999999996 Q 3.358111083984375 1.8222374999999995 3.365986083984375 1.7824874999999996 Q 3.373861083984375 1.7427374999999996 3.373861083984375 1.7022374999999996 L 3.373861083984375 1.4337374999999997 L 3.426361083984375 1.4337374999999997 L 3.426361083984375 1.7022374999999996 Q 3.426361083984375 1.7562374999999997 3.414361083984375 1.8046124999999997 Q 3.402361083984375 1.8529874999999996 3.375736083984375 1.8897374999999996 Q 3.3491110839843747 1.9264874999999997 3.306361083984375 1.9482374999999996 Q 3.263611083984375 1.9699874999999996 3.202111083984375 1.9699874999999996 Q 3.1391110839843748 1.9699874999999996 3.095986083984375 1.9471124999999996 Q 3.052861083984375 1.9242374999999996 3.026611083984375 1.8867374999999997 Q 3.000361083984375 1.8492374999999996 2.989111083984375 1.8012374999999996 Q 2.977861083984375 1.7532374999999996 2.977861083984375 1.7022374999999996 L 2.977861083984375 1.4337374999999997 L 3.029611083984375 1.4337374999999997 L 3.029611083984375 1.7022374999999996 Q 3.029611083984375 1.7442374999999997 3.037861083984375 1.7839874999999996 Q 3.046111083984375 1.8237374999999996 3.0659860839843747 1.8544874999999996 Q 3.085861083984375 1.8852374999999997 3.118861083984375 1.9039874999999997 Q 3.151861083984375 1.9227374999999995 3.201361083984375 1.9227374999999995 M 3.9374897460937497 1.8882374999999996 Q 3.86323974609375 1.9699874999999996 3.76648974609375 1.9699874999999996 Q 3.71248974609375 1.9699874999999996 3.66711474609375 1.9467374999999996 Q 3.6217397460937497 1.9234874999999996 3.58836474609375 1.8852374999999997 Q 3.55498974609375 1.8469874999999996 3.53623974609375 1.7986124999999997 Q 3.5174897460937498 1.7502374999999997 3.5174897460937498 1.6992374999999997 Q 3.5174897460937498 1.6459874999999997 3.53586474609375 1.5972374999999996 Q 3.55423974609375 1.5484874999999996 3.5872397460937497 1.5113624999999997 Q 3.62023974609375 1.4742374999999996 3.66523974609375 1.4521124999999997 Q 3.71023974609375 1.4299874999999997 3.7634897460937498 1.4299874999999997 Q 3.80248974609375 1.4299874999999997 3.83473974609375 1.4386124999999996 Q 3.8669897460937497 1.4472374999999995 3.8921147460937497 1.4626124999999996 Q 3.91723974609375 1.4779874999999996 3.93561474609375 1.4993624999999997 Q 3.95398974609375 1.5207374999999996 3.96673974609375 1.5462374999999997 L 3.92623974609375 1.5732374999999996 Q 3.89998974609375 1.5237374999999997 3.85798974609375 1.5004874999999998 Q 3.81598974609375 1.4772374999999998 3.7627397460937497 1.4772374999999998 Q 3.71848974609375 1.4772374999999998 3.68286474609375 1.4959874999999996 Q 3.64723974609375 1.5147374999999996 3.6221147460937497 1.5458624999999997 Q 3.59698974609375 1.5769874999999995 3.58348974609375 1.6171124999999997 Q 3.56998974609375 1.6572374999999997 3.56998974609375 1.6999874999999998 Q 3.56998974609375 1.7449874999999997 3.58536474609375 1.7854874999999997 Q 3.60073974609375 1.8259874999999997 3.62773974609375 1.8563624999999997 Q 3.65473974609375 1.8867374999999997 3.69111474609375 1.9047374999999995 Q 3.7274897460937497 1.9227374999999995 3.77023974609375 1.9227374999999995 Q 3.81598974609375 1.9227374999999995 3.8576147460937498 1.9013624999999996 Q 3.89923974609375 1.8799874999999997 3.9374897460937497 1.8334874999999997 L 3.9374897460937497 1.7449874999999997 L 3.81898974609375 1.7449874999999997 L 3.81898974609375 1.7044874999999997 L 3.98173974609375 1.7044874999999997 L 3.98173974609375 1.9662374999999996 L 3.9374897460937497 1.9662374999999996 L 3.9374897460937497 1.8882374999999996 M 4.510867309570312 1.4337374999999997 L 4.510867309570312 1.9662374999999996 L 4.459117309570312 1.9662374999999996 L 4.459117309570312 1.7172374999999995 L 4.143367309570312 1.7172374999999995 L 4.143367309570312 1.9662374999999996 L 4.090867309570312 1.9662374999999996 L 4.090867309570312 1.4337374999999997 L 4.143367309570312 1.4337374999999997 L 4.143367309570312 1.6707374999999995 L 4.459117309570312 1.6707374999999995 L 4.459117309570312 1.4337374999999997 L 4.510867309570312 1.4337374999999997 M 5.0234743652343745 1.4802374999999997 L 4.833724365234374 1.4802374999999997 L 4.833724365234374 1.9662374999999996 L 4.781224365234374 1.9662374999999996 L 4.781224365234374 1.4802374999999997 L 4.591474365234374 1.4802374999999997 L 4.591474365234374 1.4337374999999997 L 5.0234743652343745 1.4337374999999997 L 5.0234743652343745 1.4802374999999997 M 5.240205688476562 1.6962374999999996 Q 5.240205688476562 1.6482374999999996 5.257080688476562 1.6006124999999995 Q 5.273955688476562 1.5529874999999995 5.306205688476562 1.5154874999999997 Q 5.338455688476562 1.4779874999999996 5.385705688476562 1.4543624999999998 Q 5.432955688476562 1.4307374999999998 5.492955688476562 1.4307374999999998 Q 5.564205688476562 1.4307374999999998 5.614830688476562 1.4629874999999997 Q 5.665455688476563 1.4952374999999996 5.689455688476562 1.5469874999999997 L 5.648205688476562 1.5724874999999996 Q 5.635455688476562 1.5462374999999997 5.6170806884765625 1.5282374999999997 Q 5.598705688476562 1.5102374999999997 5.577705688476562 1.4989874999999997 Q 5.556705688476562 1.4877374999999997 5.534205688476562 1.4828624999999995 Q 5.511705688476562 1.4779874999999996 5.489955688476562 1.4779874999999996 Q 5.441955688476562 1.4779874999999996 5.4052056884765625 1.4974874999999996 Q 5.368455688476562 1.5169874999999997 5.343330688476562 1.5484874999999996 Q 5.318205688476562 1.5799874999999997 5.305455688476562 1.6193624999999996 Q 5.292705688476562 1.6587374999999995 5.292705688476562 1.6992374999999997 Q 5.292705688476562 1.7434874999999996 5.308080688476562 1.7839874999999996 Q 5.323455688476562 1.8244874999999996 5.350080688476562 1.8556124999999997 Q 5.376705688476562 1.8867374999999997 5.413080688476562 1.9051124999999995 Q 5.449455688476562 1.9234874999999996 5.492205688476562 1.9234874999999996 Q 5.514705688476562 1.9234874999999996 5.538330688476562 1.9178624999999996 Q 5.561955688476562 1.9122374999999996 5.584080688476562 1.8998624999999996 Q 5.606205688476562 1.8874874999999995 5.624955688476562 1.8691124999999997 Q 5.643705688476562 1.8507374999999997 5.656455688476562 1.8244874999999996 L 5.699955688476562 1.8469874999999996 Q 5.6872056884765625 1.8769874999999996 5.6639556884765625 1.8998624999999996 Q 5.6407056884765625 1.9227374999999995 5.612205688476562 1.9384874999999997 Q 5.583705688476562 1.9542374999999996 5.551830688476562 1.9624874999999997 Q 5.519955688476562 1.9707374999999996 5.489205688476562 1.9707374999999996 Q 5.434455688476562 1.9707374999999996 5.388705688476562 1.9467374999999996 Q 5.342955688476562 1.9227374999999995 5.309955688476562 1.8841124999999996 Q 5.276955688476562 1.8454874999999997 5.258580688476562 1.7963624999999996 Q 5.240205688476562 1.7472374999999996 5.240205688476562 1.6962374999999996 M 6.000296997070312 1.9699874999999996 Q 5.944796997070312 1.9699874999999996 5.898671997070312 1.9471124999999996 Q 5.852546997070312 1.9242374999999996 5.819546997070312 1.8863624999999997 Q 5.786546997070312 1.8484874999999996 5.768546997070312 1.7997374999999995 Q 5.7505469970703125 1.7509874999999997 5.7505469970703125 1.6999874999999998 Q 5.7505469970703125 1.6467374999999995 5.769671997070312 1.5979874999999997 Q 5.788796997070312 1.5492374999999996 5.8225469970703125 1.5117374999999997 Q 5.856296997070312 1.4742374999999996 5.902046997070312 1.4521124999999997 Q 5.947796997070312 1.4299874999999997 6.001046997070312 1.4299874999999997 Q 6.0565469970703125 1.4299874999999997 6.1026719970703125 1.4536124999999998 Q 6.1487969970703125 1.4772374999999998 6.181421997070312 1.5154874999999997 Q 6.214046997070312 1.5537374999999995 6.232046997070312 1.6021124999999996 Q 6.250046997070312 1.6504874999999997 6.250046997070312 1.7007374999999996 Q 6.250046997070312 1.7539874999999996 6.230921997070312 1.8027374999999997 Q 6.211796997070312 1.8514874999999997 6.178421997070312 1.8886124999999996 Q 6.145046997070312 1.9257374999999997 6.099296997070312 1.9478624999999996 Q 6.053546997070312 1.9699874999999996 6.000296997070312 1.9699874999999996 M 5.803046997070312 1.6999874999999998 Q 5.803046997070312 1.7434874999999996 5.817296997070312 1.7836124999999996 Q 5.831546997070312 1.8237374999999996 5.857796997070312 1.8548624999999996 Q 5.884046997070312 1.8859874999999997 5.920046997070312 1.9043624999999997 Q 5.956046997070312 1.9227374999999995 6.000296997070312 1.9227374999999995 Q 6.045296997070312 1.9227374999999995 6.082046997070313 1.9032374999999997 Q 6.118796997070312 1.8837374999999996 6.144296997070312 1.8522374999999995 Q 6.169796997070312 1.8207374999999997 6.183671997070312 1.7809874999999997 Q 6.1975469970703125 1.7412374999999995 6.1975469970703125 1.6999874999999998 Q 6.1975469970703125 1.6564874999999997 6.182921997070312 1.6163624999999997 Q 6.168296997070312 1.5762374999999995 6.142046997070312 1.5454874999999997 Q 6.115796997070312 1.5147374999999996 6.0797969970703125 1.4963624999999996 Q 6.043796997070312 1.4779874999999996 6.000296997070312 1.4779874999999996 Q 5.955296997070312 1.4779874999999996 5.918546997070312 1.4971124999999996 Q 5.881796997070312 1.5162374999999997 5.856296997070312 1.5477374999999998 Q 5.830796997070312 1.5792374999999996 5.816921997070312 1.6189874999999996 Q 5.803046997070312 1.6587374999999995 5.803046997070312 1.6999874999999998 M 6.821904418945312 1.9662374999999996 L 6.821904418945312 1.5289874999999995 L 6.627654418945312 1.8672374999999997 L 6.5969044189453125 1.8672374999999997 L 6.402654418945312 1.5289874999999995 L 6.402654418945312 1.9662374999999996 L 6.350154418945312 1.9662374999999996 L 6.350154418945312 1.4337374999999997 L 6.404154418945312 1.4337374999999997 L 6.611904418945312 1.7982374999999997 L 6.821154418945312 1.4337374999999997 L 6.874404418945312 1.4337374999999997 L 6.874404418945312 1.9662374999999996 L 6.821904418945312 1.9662374999999996 M 7.0090400390625 1.9662374999999996 L 7.0090400390625 1.4337374999999997 L 7.2295400390625 1.4337374999999997 Q 7.2640400390624995 1.4337374999999997 7.2929150390625 1.4483624999999996 Q 7.3217900390625 1.4629874999999997 7.3427900390625 1.4866124999999997 Q 7.3637900390625 1.5102374999999997 7.375790039062499 1.5402374999999997 Q 7.3877900390625 1.5702374999999997 7.3877900390625 1.6009874999999996 Q 7.3877900390625 1.6339874999999997 7.376540039062499 1.6643624999999997 Q 7.3652900390625 1.6947374999999996 7.3450400390625 1.7179874999999996 Q 7.3247900390625 1.7412374999999995 7.2966650390625 1.7554874999999996 Q 7.2685400390625 1.7697374999999997 7.2340400390625 1.7697374999999997 L 7.0615400390625 1.7697374999999997 L 7.0615400390625 1.9662374999999996 L 7.0090400390625 1.9662374999999996 M 7.0615400390625 1.7232374999999998 L 7.2317900390625 1.7232374999999998 Q 7.2550400390625 1.7232374999999998 7.2741650390625 1.7131124999999996 Q 7.2932900390625 1.7029874999999997 7.306790039062499 1.6861124999999997 Q 7.3202900390625 1.6692374999999997 7.3277900390625 1.6471124999999995 Q 7.3352900390624995 1.6249874999999996 7.3352900390624995 1.6009874999999996 Q 7.3352900390624995 1.5762374999999995 7.3266650390625 1.5541124999999996 Q 7.3180400390625 1.5319874999999996 7.3034150390625 1.5154874999999997 Q 7.2887900390625 1.4989874999999997 7.2689150390625 1.4896124999999996 Q 7.2490400390625 1.4802374999999997 7.2272900390625 1.4802374999999997 L 7.0615400390625 1.4802374999999997 L 7.0615400390625 1.7232374999999998 M 7.692671997070312 1.9227374999999995 Q 7.7429219970703125 1.9227374999999995 7.776296997070312 1.9036124999999997 Q 7.809671997070312 1.8844874999999996 7.829546997070312 1.8533624999999996 Q 7.849421997070312 1.8222374999999995 7.857296997070312 1.7824874999999996 Q 7.865171997070313 1.7427374999999996 7.865171997070313 1.7022374999999996 L 7.865171997070313 1.4337374999999997 L 7.917671997070312 1.4337374999999997 L 7.917671997070312 1.7022374999999996 Q 7.917671997070312 1.7562374999999997 7.905671997070312 1.8046124999999997 Q 7.893671997070312 1.8529874999999996 7.867046997070313 1.8897374999999996 Q 7.840421997070313 1.9264874999999997 7.797671997070312 1.9482374999999996 Q 7.754921997070312 1.9699874999999996 7.693421997070312 1.9699874999999996 Q 7.630421997070313 1.9699874999999996 7.587296997070312 1.9471124999999996 Q 7.544171997070312 1.9242374999999996 7.517921997070312 1.8867374999999997 Q 7.491671997070313 1.8492374999999996 7.480421997070312 1.8012374999999996 Q 7.469171997070312 1.7532374999999996 7.469171997070312 1.7022374999999996 L 7.469171997070312 1.4337374999999997 L 7.520921997070312 1.4337374999999997 L 7.520921997070312 1.7022374999999996 Q 7.520921997070312 1.7442374999999997 7.529171997070312 1.7839874999999996 Q 7.537421997070313 1.8237374999999996 7.5572969970703125 1.8544874999999996 Q 7.577171997070312 1.8852374999999997 7.610171997070312 1.9039874999999997 Q 7.643171997070312 1.9227374999999995 7.692671997070312 1.9227374999999995 M 8.422050659179687 1.4802374999999997 L 8.232300659179687 1.4802374999999997 L 8.232300659179687 1.9662374999999996 L 8.179800659179687 1.9662374999999996 L 8.179800659179687 1.4802374999999997 L 7.990050659179687 1.4802374999999997 L 7.990050659179687 1.4337374999999997 L 8.422050659179687 1.4337374999999997 L 8.422050659179687 1.4802374999999997 M 8.860414672851562 1.9197374999999997 L 8.860414672851562 1.9662374999999996 L 8.502664672851562 1.9662374999999996 L 8.502664672851562 1.4337374999999997 L 8.853664672851561 1.4337374999999997 L 8.853664672851561 1.4802374999999997 L 8.55516467285156 1.4802374999999997 L 8.55516467285156 1.6722374999999996 L 8.815414672851562 1.6722374999999996 L 8.815414672851562 1.7164874999999997 L 8.55516467285156 1.7164874999999997 L 8.55516467285156 1.9197374999999997 L 8.860414672851562 1.9197374999999997 M 8.960546264648437 1.9662374999999996 L 8.960546264648437 1.4337374999999997 L 9.185546264648437 1.4337374999999997 Q 9.220046264648436 1.4337374999999997 9.248921264648436 1.4483624999999996 Q 9.277796264648437 1.4629874999999997 9.298796264648436 1.4866124999999997 Q 9.319796264648437 1.5102374999999997 9.331421264648437 1.5402374999999997 Q 9.343046264648436 1.5702374999999997 9.343046264648436 1.6009874999999996 Q 9.343046264648436 1.6302374999999996 9.334421264648437 1.6568624999999997 Q 9.325796264648437 1.6834874999999996 9.310421264648436 1.7048624999999995 Q 9.295046264648436 1.7262374999999996 9.273296264648437 1.7408624999999995 Q 9.251546264648436 1.7554874999999996 9.224546264648437 1.7607374999999996 L 9.355046264648436 1.9662374999999996 L 9.295796264648436 1.9662374999999996 L 9.170546264648436 1.7697374999999997 L 9.013046264648436 1.7697374999999997 L 9.013046264648436 1.9662374999999996 L 8.960546264648437 1.9662374999999996 M 9.013046264648436 1.7232374999999998 L 9.187046264648437 1.7232374999999998 Q 9.210296264648436 1.7232374999999998 9.229421264648437 1.7131124999999996 Q 9.248546264648436 1.7029874999999997 9.262046264648436 1.6857374999999997 Q 9.275546264648437 1.6684874999999997 9.283046264648437 1.6467374999999995 Q 9.290546264648437 1.6249874999999996 9.290546264648437 1.6009874999999996 Q 9.290546264648437 1.5769874999999995 9.281921264648437 1.5548624999999996 Q 9.273296264648437 1.5327374999999996 9.258671264648436 1.5162374999999997 Q 9.244046264648437 1.4997374999999997 9.224171264648437 1.4899874999999996 Q 9.204296264648436 1.4802374999999997 9.182546264648437 1.4802374999999997 L 9.013046264648436 1.4802374999999997 L 9.013046264648436 1.7232374999999998 M 9.955061279296874 1.5334874999999997 Q 9.932561279296873 1.5079874999999996 9.895061279296874 1.4922374999999997 Q 9.857561279296874 1.4764874999999997 9.809561279296874 1.4764874999999997 Q 9.739061279296875 1.4764874999999997 9.706811279296874 1.5031124999999996 Q 9.674561279296874 1.5297374999999995 9.674561279296874 1.5754874999999997 Q 9.674561279296874 1.5994874999999995 9.683186279296875 1.6148624999999996 Q 9.691811279296875 1.6302374999999996 9.709811279296874 1.6414874999999998 Q 9.727811279296875 1.6527374999999997 9.755936279296874 1.6609874999999996 Q 9.784061279296875 1.6692374999999997 9.822311279296875 1.6774874999999996 Q 9.865061279296874 1.6864874999999997 9.899186279296874 1.6977374999999997 Q 9.933311279296873 1.7089874999999997 9.957311279296874 1.7258624999999996 Q 9.981311279296873 1.7427374999999996 9.994061279296874 1.7667374999999996 Q 10.006811279296874 1.7907374999999996 10.006811279296874 1.8267374999999997 Q 10.006811279296874 1.8634874999999997 9.992561279296874 1.8904874999999997 Q 9.978311279296873 1.9174874999999996 9.952811279296874 1.9354874999999996 Q 9.927311279296875 1.9534874999999996 9.892061279296874 1.9621124999999997 Q 9.856811279296874 1.9707374999999996 9.814811279296874 1.9707374999999996 Q 9.691061279296875 1.9707374999999996 9.601061279296873 1.8934874999999995 L 9.627311279296874 1.8507374999999997 Q 9.641561279296875 1.8657374999999996 9.661436279296874 1.8792374999999997 Q 9.681311279296875 1.8927374999999997 9.705686279296874 1.9028624999999997 Q 9.730061279296875 1.9129874999999996 9.757811279296874 1.9186124999999996 Q 9.785561279296875 1.9242374999999996 9.816311279296874 1.9242374999999996 Q 9.880061279296875 1.9242374999999996 9.915686279296875 1.9013624999999996 Q 9.951311279296874 1.8784874999999996 9.951311279296874 1.8319874999999997 Q 9.951311279296874 1.8072374999999996 9.941186279296874 1.7903624999999996 Q 9.931061279296873 1.7734874999999997 9.910811279296874 1.7611124999999996 Q 9.890561279296874 1.7487374999999996 9.860561279296874 1.7397374999999997 Q 9.830561279296875 1.7307374999999996 9.790811279296873 1.7217374999999997 Q 9.748811279296874 1.7119874999999996 9.717311279296874 1.7014874999999996 Q 9.685811279296875 1.6909874999999996 9.664061279296874 1.6752374999999997 Q 9.642311279296875 1.6594874999999996 9.631436279296874 1.6373624999999996 Q 9.620561279296874 1.6152374999999997 9.620561279296874 1.5829874999999995 Q 9.620561279296874 1.5462374999999997 9.634436279296875 1.5173624999999995 Q 9.648311279296873 1.4884874999999997 9.673811279296874 1.4693624999999997 Q 9.699311279296873 1.4502374999999996 9.733811279296875 1.4401124999999997 Q 9.768311279296874 1.4299874999999997 9.810311279296874 1.4299874999999997 Q 9.863561279296874 1.4299874999999997 9.905186279296874 1.4461124999999995 Q 9.946811279296874 1.4622374999999996 9.980561279296873 1.4914874999999996 L 9.955061279296874 1.5334874999999997 M 10.064932250976561 1.6962374999999996 Q 10.064932250976561 1.6482374999999996 10.081807250976562 1.6006124999999995 Q 10.098682250976562 1.5529874999999995 10.130932250976562 1.5154874999999997 Q 10.163182250976561 1.4779874999999996 10.210432250976561 1.4543624999999998 Q 10.257682250976561 1.4307374999999998 10.317682250976562 1.4307374999999998 Q 10.388932250976561 1.4307374999999998 10.439557250976561 1.4629874999999997 Q 10.490182250976561 1.4952374999999996 10.514182250976562 1.5469874999999997 L 10.472932250976562 1.5724874999999996 Q 10.460182250976562 1.5462374999999997 10.441807250976561 1.5282374999999997 Q 10.423432250976562 1.5102374999999997 10.402432250976561 1.4989874999999997 Q 10.381432250976562 1.4877374999999997 10.358932250976562 1.4828624999999995 Q 10.336432250976562 1.4779874999999996 10.314682250976562 1.4779874999999996 Q 10.266682250976562 1.4779874999999996 10.229932250976562 1.4974874999999996 Q 10.193182250976562 1.5169874999999997 10.168057250976561 1.5484874999999996 Q 10.142932250976562 1.5799874999999997 10.130182250976562 1.6193624999999996 Q 10.117432250976561 1.6587374999999995 10.117432250976561 1.6992374999999997 Q 10.117432250976561 1.7434874999999996 10.132807250976562 1.7839874999999996 Q 10.148182250976562 1.8244874999999996 10.174807250976562 1.8556124999999997 Q 10.201432250976561 1.8867374999999997 10.237807250976562 1.9051124999999995 Q 10.274182250976562 1.9234874999999996 10.316932250976562 1.9234874999999996 Q 10.33943225097656 1.9234874999999996 10.363057250976562 1.9178624999999996 Q 10.38668225097656 1.9122374999999996 10.408807250976562 1.8998624999999996 Q 10.430932250976563 1.8874874999999995 10.449682250976561 1.8691124999999997 Q 10.468432250976562 1.8507374999999997 10.48118225097656 1.8244874999999996 L 10.524682250976563 1.8469874999999996 Q 10.511932250976562 1.8769874999999996 10.488682250976561 1.8998624999999996 Q 10.465432250976562 1.9227374999999995 10.436932250976561 1.9384874999999997 Q 10.408432250976562 1.9542374999999996 10.376557250976562 1.9624874999999997 Q 10.344682250976561 1.9707374999999996 10.313932250976562 1.9707374999999996 Q 10.259182250976561 1.9707374999999996 10.213432250976561 1.9467374999999996 Q 10.167682250976561 1.9227374999999995 10.134682250976562 1.8841124999999996 Q 10.101682250976562 1.8454874999999997 10.083307250976562 1.7963624999999996 Q 10.064932250976561 1.7472374999999996 10.064932250976561 1.6962374999999996 M 10.615787841796875 1.9662374999999996 L 10.615787841796875 1.4337374999999997 L 10.668287841796873 1.4337374999999997 L 10.668287841796873 1.9662374999999996 L 10.615787841796875 1.9662374999999996 M 11.160652221679687 1.9197374999999997 L 11.160652221679687 1.9662374999999996 L 10.802902221679688 1.9662374999999996 L 10.802902221679688 1.4337374999999997 L 11.153902221679687 1.4337374999999997 L 11.153902221679687 1.4802374999999997 L 10.855402221679686 1.4802374999999997 L 10.855402221679686 1.6722374999999996 L 11.115652221679687 1.6722374999999996 L 11.115652221679687 1.7164874999999997 L 10.855402221679686 1.7164874999999997 L 10.855402221679686 1.9197374999999997 L 11.160652221679687 1.9197374999999997 M 11.313283813476561 1.5312374999999996 L 11.313283813476561 1.9662374999999996 L 11.260783813476563 1.9662374999999996 L 11.260783813476563 1.4337374999999997 L 11.301283813476562 1.4337374999999997 L 11.653783813476561 1.8769874999999996 L 11.653783813476561 1.4344874999999995 L 11.706283813476562 1.4344874999999995 L 11.706283813476562 1.9662374999999996 L 11.660533813476562 1.9662374999999996 L 11.313283813476561 1.5312374999999996 M 11.805638305664061 1.6962374999999996 Q 11.805638305664061 1.6482374999999996 11.822513305664062 1.6006124999999995 Q 11.839388305664063 1.5529874999999995 11.871638305664062 1.5154874999999997 Q 11.903888305664061 1.4779874999999996 11.951138305664061 1.4543624999999998 Q 11.998388305664061 1.4307374999999998 12.058388305664062 1.4307374999999998 Q 12.129638305664061 1.4307374999999998 12.180263305664061 1.4629874999999997 Q 12.230888305664061 1.4952374999999996 12.254888305664062 1.5469874999999997 L 12.213638305664062 1.5724874999999996 Q 12.200888305664062 1.5462374999999997 12.182513305664061 1.5282374999999997 Q 12.164138305664062 1.5102374999999997 12.143138305664062 1.4989874999999997 Q 12.122138305664063 1.4877374999999997 12.099638305664062 1.4828624999999995 Q 12.077138305664063 1.4779874999999996 12.055388305664062 1.4779874999999996 Q 12.007388305664062 1.4779874999999996 11.970638305664062 1.4974874999999996 Q 11.933888305664063 1.5169874999999997 11.908763305664062 1.5484874999999996 Q 11.883638305664062 1.5799874999999997 11.870888305664062 1.6193624999999996 Q 11.858138305664061 1.6587374999999995 11.858138305664061 1.6992374999999997 Q 11.858138305664061 1.7434874999999996 11.873513305664062 1.7839874999999996 Q 11.888888305664063 1.8244874999999996 11.915513305664062 1.8556124999999997 Q 11.942138305664061 1.8867374999999997 11.978513305664062 1.9051124999999995 Q 12.014888305664062 1.9234874999999996 12.057638305664062 1.9234874999999996 Q 12.080138305664061 1.9234874999999996 12.103763305664062 1.9178624999999996 Q 12.127388305664061 1.9122374999999996 12.149513305664062 1.8998624999999996 Q 12.171638305664063 1.8874874999999995 12.190388305664062 1.8691124999999997 Q 12.209138305664062 1.8507374999999997 12.221888305664061 1.8244874999999996 L 12.265388305664063 1.8469874999999996 Q 12.252638305664062 1.8769874999999996 12.229388305664061 1.8998624999999996 Q 12.206138305664062 1.9227374999999995 12.177638305664061 1.9384874999999997 Q 12.149138305664062 1.9542374999999996 12.117263305664062 1.9624874999999997 Q 12.085388305664061 1.9707374999999996 12.054638305664062 1.9707374999999996 Q 11.999888305664062 1.9707374999999996 11.954138305664062 1.9467374999999996 Q 11.908388305664062 1.9227374999999995 11.875388305664062 1.8841124999999996 Q 11.842388305664063 1.8454874999999997 11.824013305664062 1.7963624999999996 Q 11.805638305664061 1.7472374999999996 11.805638305664061 1.6962374999999996 M 12.714243896484374 1.9197374999999997 L 12.714243896484374 1.9662374999999996 L 12.356493896484375 1.9662374999999996 L 12.356493896484375 1.4337374999999997 L 12.707493896484374 1.4337374999999997 L 12.707493896484374 1.4802374999999997 L 12.408993896484374 1.4802374999999997 L 12.408993896484374 1.6722374999999996 L 12.669243896484375 1.6722374999999996 L 12.669243896484375 1.7164874999999997 L 12.408993896484374 1.7164874999999997 L 12.408993896484374 1.9197374999999997 L 12.714243896484374 1.9197374999999997" fill="#225777" fill-rule="nonzero"></path></g><g clip-path="url(#SvgjsClipPath1004)"><g clip-path="url(#SvgjsClipPath100102a5da99-5af4-4f64-a57e-cb67d0885015)"><path d=" M -0.7437234103523285 0.29573851655035 L -0.7437234103523285 -0.04798489380197912 L -1.0874024292013191 -0.04798489380197912 L -1.0874024292013191 0.6394175353993402 L -1.4310814480503093 0.6394175353993402 L -1.4310814480503093 0.29573851655035 L -1.7748048584026384 0.29573851655035 L -1.7748048584026384 -0.04798489380197912 L -2.1184838772516286 -0.04798489380197912 L -2.1184838772516286 0.29573851655035 L -2.462207287603958 0.29573851655035 L -2.462207287603958 0.6394175353993402 L -1.7748048584026384 0.6394175353993402 L -1.7748048584026384 0.9831409457516693 L -2.1184838772516286 0.9831409457516693 L -2.1184838772516286 1.3268199646006595 L -2.462207287603958 1.3268199646006595 L -2.462207287603958 1.6705433749529888 L -2.1184838772516286 1.6705433749529888 L -2.1184838772516286 2.0142223938019788 L -1.7748048584026384 2.0142223938019788 L -1.7748048584026384 1.3268199646006595 L -1.4310814480503093 1.3268199646006595 L -1.4310814480503093 1.6705433749529888 L -1.0874024292013191 1.6705433749529888 L -1.0874024292013191 2.0142223938019788 L -0.7436790188489899 2.0142223938019788 L -0.7436790188489899 1.6705433749529888 L -0.3999999999999999 1.6705433749529888 L -0.3999999999999999 1.3268199646006595 L -1.0874024292013191 1.3268199646006595 L -1.0874024292013191 0.9831409457516693 L -0.7437234103523285 0.9831409457516693 L -0.7437234103523285 0.6394175353993402 L -0.3999999999999999 0.6394175353993402 L -0.3999999999999999 0.29573851655035 L -0.7437234103523285 0.29573851655035 Z" fill="url(#gradient-98fb626c-28ca-45d2-9785-a6511dd28192_0)" transform="matrix(1,0,0,1,0,0)" fill-rule="evenodd"></path></g></g></g><defs><clipPath id="SvgjsClipPath1004"><path d=" M -2.462207287603958 -0.04798489380197912 h 2.062207287603958 v 2.062207287603958 h -2.062207287603958 Z"></path></clipPath><clipPath id="SvgjsClipPath100102a5da99-5af4-4f64-a57e-cb67d0885015"><path d=" M -2.462207287603958 -0.04798489380197912 L -0.3999999999999999 -0.04798489380197912 L -0.3999999999999999 2.0142223938019788 L -2.462207287603958 2.0142223938019788 Z"></path></clipPath><linearGradient id="gradient-98fb626c-28ca-45d2-9785-a6511dd28192_0" x1="0" x2="1" y1="0" y2="1"><stop stop-color="#225777" offset="0"></stop><stop stop-color="#173054" offset="1"></stop></linearGradient></defs></svg>