<svg xmlns="http://www.w3.org/2000/svg" version="1.1" xmlns:xlink="http://www.w3.org/1999/xlink" xmlns:svgjs="http://svgjs.dev/svgjs" viewBox="0 0 4.663174011315211 5.488819062051485"><g transform="matrix(1,0,0,1,0.42131832889979304,3.9800007331516922)"><rect width="5.488819062051485" height="5.488819062051485" x="-0.83414085426793" y="-3.9800007331516922" fill="#ffffff"></rect><g><path d=" M 0.7365 0.3569999999999999 Q 0.7365 0.3569999999999999 0.711 0.34199999999999986 Q 0.6855 0.32699999999999985 0.6435 0.3082499999999998 Q 0.6015 0.28949999999999987 0.552 0.27449999999999986 Q 0.5025000000000001 0.25949999999999984 0.4545 0.25949999999999984 Q 0.417 0.25949999999999984 0.393 0.27149999999999985 Q 0.369 0.28349999999999986 0.369 0.31199999999999983 Q 0.369 0.33899999999999986 0.393 0.3554999999999998 Q 0.417 0.3719999999999998 0.46125 0.38549999999999984 Q 0.5055000000000001 0.3989999999999998 0.5670000000000001 0.41849999999999987 Q 0.666 0.4484999999999998 0.738 0.4874999999999998 Q 0.81 0.5264999999999999 0.849 0.5872499999999998 Q 0.888 0.6479999999999999 0.888 0.7484999999999998 Q 0.888 0.8444999999999998 0.8535 0.9097499999999998 Q 0.8190000000000001 0.9749999999999999 0.7605000000000001 1.0139999999999998 Q 0.7020000000000001 1.053 0.63 1.07025 Q 0.558 1.0875 0.483 1.0875 Q 0.40650000000000003 1.0875 0.32325 1.0717499999999998 Q 0.24 1.0559999999999998 0.162 1.0282499999999999 Q 0.084 1.0005 0.0195 0.9629999999999999 L 0.1455 0.7064999999999999 Q 0.1455 0.7064999999999999 0.17550000000000002 0.7244999999999998 Q 0.20550000000000002 0.7424999999999998 0.255 0.7649999999999999 Q 0.3045 0.7874999999999999 0.36525 0.8054999999999999 Q 0.426 0.8234999999999999 0.4875 0.8234999999999999 Q 0.5355 0.8234999999999999 0.55425 0.8107499999999999 Q 0.5730000000000001 0.7979999999999998 0.5730000000000001 0.7769999999999999 Q 0.5730000000000001 0.7454999999999998 0.54 0.7282499999999998 Q 0.507 0.7109999999999999 0.45375 0.6952499999999998 Q 0.4005 0.6794999999999998 0.336 0.6584999999999999 Q 0.243 0.6269999999999998 0.183 0.5872499999999998 Q 0.123 0.5474999999999999 0.0945 0.4927499999999998 Q 0.066 0.43799999999999983 0.066 0.3599999999999999 Q 0.066 0.24149999999999983 0.1215 0.1619999999999998 Q 0.177 0.0824999999999998 0.26775 0.04124999999999979 Q 0.3585 -2.220446049250313e-16 0.4635 -2.220446049250313e-16 Q 0.5415 -2.220446049250313e-16 0.61425 0.018749999999999822 Q 0.687 0.03749999999999987 0.75075 0.06449999999999978 Q 0.8145 0.0914999999999998 0.8625 0.11549999999999983 L 0.7365 0.3569999999999999 M 1.851006591796875 0.2639999999999998 L 1.545006591796875 0.2639999999999998 L 1.545006591796875 1.0739999999999998 L 1.252506591796875 1.0739999999999998 L 1.252506591796875 0.2639999999999998 L 0.945006591796875 0.2639999999999998 L 0.945006591796875 0.008999999999999897 L 1.851006591796875 0.008999999999999897 L 1.851006591796875 0.2639999999999998 M 1.8870622558593748 0.5324999999999999 Q 1.8870622558593748 0.43499999999999983 1.9238122558593749 0.34124999999999983 Q 1.960562255859375 0.24749999999999983 2.031062255859375 0.17099999999999982 Q 2.101562255859375 0.0944999999999998 2.202812255859375 0.04874999999999985 Q 2.304062255859375 0.0029999999999998916 2.431562255859375 0.0029999999999998916 Q 2.584562255859375 0.0029999999999998916 2.698562255859375 0.06674999999999986 Q 2.812562255859375 0.13049999999999984 2.8680622558593747 0.23549999999999982 L 2.644562255859375 0.39449999999999985 Q 2.625062255859375 0.34199999999999986 2.5883122558593747 0.3134999999999998 Q 2.551562255859375 0.2849999999999998 2.508812255859375 0.2737499999999998 Q 2.466062255859375 0.26249999999999984 2.425562255859375 0.26249999999999984 Q 2.362562255859375 0.26249999999999984 2.316812255859375 0.2872499999999998 Q 2.2710622558593747 0.31199999999999983 2.241812255859375 0.3524999999999998 Q 2.2125622558593747 0.3929999999999998 2.198312255859375 0.4424999999999998 Q 2.184062255859375 0.4919999999999999 2.184062255859375 0.5414999999999999 Q 2.184062255859375 0.5969999999999998 2.200562255859375 0.6479999999999999 Q 2.217062255859375 0.6989999999999998 2.2485622558593747 0.7387499999999998 Q 2.280062255859375 0.7784999999999999 2.325812255859375 0.8009999999999998 Q 2.371562255859375 0.8234999999999999 2.428562255859375 0.8234999999999999 Q 2.4690622558593747 0.8234999999999999 2.511062255859375 0.8107499999999999 Q 2.553062255859375 0.7979999999999998 2.5875622558593747 0.7694999999999999 Q 2.622062255859375 0.7409999999999999 2.640062255859375 0.6929999999999998 L 2.878562255859375 0.8354999999999998 Q 2.847062255859375 0.9134999999999999 2.7735622558593747 0.9689999999999999 Q 2.700062255859375 1.0244999999999997 2.607062255859375 1.0537499999999997 Q 2.514062255859375 1.0829999999999997 2.4225622558593747 1.0829999999999997 Q 2.304062255859375 1.0829999999999997 2.205812255859375 1.03575 Q 2.1075622558593747 0.9884999999999998 2.0363122558593747 0.9097499999999998 Q 1.9650622558593749 0.8309999999999998 1.926062255859375 0.7327499999999998 Q 1.8870622558593748 0.6344999999999998 1.8870622558593748 0.5324999999999999 M 3.6315307617187496 0.3569999999999999 Q 3.6315307617187496 0.3569999999999999 3.6060307617187495 0.34199999999999986 Q 3.58053076171875 0.32699999999999985 3.5385307617187496 0.3082499999999998 Q 3.4965307617187498 0.28949999999999987 3.4470307617187497 0.27449999999999986 Q 3.3975307617187496 0.25949999999999984 3.3495307617187495 0.25949999999999984 Q 3.3120307617187494 0.25949999999999984 3.2880307617187494 0.27149999999999985 Q 3.2640307617187494 0.28349999999999986 3.2640307617187494 0.31199999999999983 Q 3.2640307617187494 0.33899999999999986 3.2880307617187494 0.3554999999999998 Q 3.3120307617187494 0.3719999999999998 3.35628076171875 0.38549999999999984 Q 3.4005307617187497 0.3989999999999998 3.46203076171875 0.41849999999999987 Q 3.5610307617187495 0.4484999999999998 3.6330307617187496 0.4874999999999998 Q 3.7050307617187497 0.5264999999999999 3.74403076171875 0.5872499999999998 Q 3.7830307617187495 0.6479999999999999 3.7830307617187495 0.7484999999999998 Q 3.7830307617187495 0.8444999999999998 3.7485307617187495 0.9097499999999998 Q 3.7140307617187496 0.9749999999999999 3.6555307617187496 1.0139999999999998 Q 3.5970307617187496 1.053 3.5250307617187495 1.07025 Q 3.4530307617187495 1.0875 3.3780307617187497 1.0875 Q 3.3015307617187495 1.0875 3.2182807617187494 1.0717499999999998 Q 3.13503076171875 1.0559999999999998 3.0570307617187495 1.0282499999999999 Q 2.9790307617187497 1.0005 2.9145307617187495 0.9629999999999999 L 3.04053076171875 0.7064999999999999 Q 3.04053076171875 0.7064999999999999 3.0705307617187496 0.7244999999999998 Q 3.1005307617187494 0.7424999999999998 3.1500307617187495 0.7649999999999999 Q 3.1995307617187496 0.7874999999999999 3.2602807617187497 0.8054999999999999 Q 3.32103076171875 0.8234999999999999 3.3825307617187494 0.8234999999999999 Q 3.4305307617187495 0.8234999999999999 3.4492807617187498 0.8107499999999999 Q 3.4680307617187496 0.7979999999999998 3.4680307617187496 0.7769999999999999 Q 3.4680307617187496 0.7454999999999998 3.4350307617187497 0.7282499999999998 Q 3.4020307617187497 0.7109999999999999 3.3487807617187495 0.6952499999999998 Q 3.2955307617187497 0.6794999999999998 3.2310307617187495 0.6584999999999999 Q 3.1380307617187495 0.6269999999999998 3.0780307617187495 0.5872499999999998 Q 3.01803076171875 0.5474999999999999 2.9895307617187497 0.4927499999999998 Q 2.9610307617187495 0.43799999999999983 2.9610307617187495 0.3599999999999999 Q 2.9610307617187495 0.24149999999999983 3.01653076171875 0.1619999999999998 Q 3.0720307617187497 0.0824999999999998 3.1627807617187496 0.04124999999999979 Q 3.2535307617187494 -2.220446049250313e-16 3.3585307617187494 -2.220446049250313e-16 Q 3.4365307617187497 -2.220446049250313e-16 3.50928076171875 0.018749999999999822 Q 3.58203076171875 0.03749999999999987 3.6457807617187497 0.06449999999999978 Q 3.7095307617187494 0.0914999999999998 3.7575307617187494 0.11549999999999983 L 3.6315307617187496 0.3569999999999999" fill="#173054" fill-rule="nonzero"></path></g><g></g><g clip-path="url(#SvgjsClipPath1258)"><g clip-path="url(#SvgjsClipPath125549c2e4fe-da92-4ac9-ad44-6f5048266d55)"><path d=" M 3.013127199815364 -3.0071997251835008 L 3.013127199815364 -3.558682404251899 L 2.461715744133129 -3.558682404251899 L 2.461715744133129 -2.455788269501266 L 1.9103042884508945 -2.455788269501266 L 1.9103042884508945 -3.0071997251835008 L 1.3588216093824959 -3.0071997251835008 L 1.3588216093824959 -3.558682404251899 L 0.8074101537002614 -3.558682404251899 L 0.8074101537002614 -3.0071997251835008 L 0.2559274746318627 -3.0071997251835008 L 0.2559274746318627 -2.455788269501266 L 1.3588216093824959 -2.455788269501266 L 1.3588216093824959 -1.9043055904328674 L 0.8074101537002614 -1.9043055904328674 L 0.8074101537002614 -1.352894134750633 L 0.2559274746318627 -1.352894134750633 L 0.2559274746318627 -0.801411455682234 L 0.8074101537002614 -0.801411455682234 L 0.8074101537002614 -0.25 L 1.3588216093824959 -0.25 L 1.3588216093824959 -1.352894134750633 L 1.9103042884508945 -1.352894134750633 L 1.9103042884508945 -0.801411455682234 L 2.461715744133129 -0.801411455682234 L 2.461715744133129 -0.25 L 3.013198423201528 -0.25 L 3.013198423201528 -0.801411455682234 L 3.564609878883762 -0.801411455682234 L 3.564609878883762 -1.352894134750633 L 2.461715744133129 -1.352894134750633 L 2.461715744133129 -1.9043055904328674 L 3.013127199815364 -1.9043055904328674 L 3.013127199815364 -2.455788269501266 L 3.564609878883762 -2.455788269501266 L 3.564609878883762 -3.0071997251835008 L 3.013127199815364 -3.0071997251835008 Z" fill="url(#gradient-98fb626c-28ca-45d2-9785-a6511dd28192_0)" transform="matrix(1,0,0,1,0,0)" fill-rule="evenodd"></path></g></g></g><defs><clipPath id="SvgjsClipPath1258"><path d=" M 0.2559274746318627 -3.558682404251899 h 3.308682404251899 v 3.308682404251899 h -3.308682404251899 Z"></path></clipPath><clipPath id="SvgjsClipPath125549c2e4fe-da92-4ac9-ad44-6f5048266d55"><path d=" M 0.2559274746318627 -3.558682404251899 L 3.564609878883762 -3.558682404251899 L 3.564609878883762 -0.25 L 0.2559274746318627 -0.25 Z"></path></clipPath><linearGradient id="gradient-98fb626c-28ca-45d2-9785-a6511dd28192_0" x1="0" x2="1" y1="0" y2="1"><stop stop-color="#225777" offset="0"></stop><stop stop-color="#173054" offset="1"></stop></linearGradient></defs></svg>