<svg xmlns="http://www.w3.org/2000/svg" version="1.1" xmlns:xlink="http://www.w3.org/1999/xlink" xmlns:svgjs="http://svgjs.dev/svgjs" viewBox="0 0 1.6755246640595975 1.6755246640595975"><g transform="matrix(1,0,0,1,0.80468890673683,1.0358976087212977)"><g><path d=" M 0.006600000000000001 0.025500000000000002 L 0.006600000000000001 0 L 0.059550000000000006 0 L 0.059550000000000006 0.025500000000000002 L 0.006600000000000001 0.025500000000000002" fill="#173054" fill-rule="nonzero"></path></g><g></g><g clip-path="url(#SvgjsClipPath1048)"><g clip-path="url(#SvgjsClipPath104619b03b18-638f-47f3-9096-4861f6ff75cd)"><path d=" M 0.498481914882013 -0.6635437662805428 L 0.498481914882013 -0.896270553382998 L 0.2657851841901352 -0.896270553382998 L 0.2657851841901352 -0.4308470355886653 L 0.03308845349825762 -0.4308470355886653 L 0.03308845349825762 -0.6635437662805428 L -0.19963833360419753 -0.6635437662805428 L -0.19963833360419753 -0.896270553382998 L -0.43233506429607504 -0.896270553382998 L -0.43233506429607504 -0.6635437662805428 L -0.6650618513985302 -0.6635437662805428 L -0.6650618513985302 -0.4308470355886653 L -0.19963833360419753 -0.4308470355886653 L -0.19963833360419753 -0.19812024848621013 L -0.43233506429607504 -0.19812024848621013 L -0.43233506429607504 0.03457648220566745 L -0.6650618513985302 0.03457648220566745 L -0.6650618513985302 0.26730326930812276 L -0.43233506429607504 0.26730326930812276 L -0.43233506429607504 0.5 L -0.19963833360419753 0.5 L -0.19963833360419753 0.03457648220566745 L 0.03308845349825762 0.03457648220566745 L 0.03308845349825762 0.26730326930812276 L 0.2657851841901352 0.26730326930812276 L 0.2657851841901352 0.5 L 0.4985119712925905 0.5 L 0.4985119712925905 0.26730326930812276 L 0.7312087019844677 0.26730326930812276 L 0.7312087019844677 0.03457648220566745 L 0.2657851841901352 0.03457648220566745 L 0.2657851841901352 -0.19812024848621013 L 0.498481914882013 -0.19812024848621013 L 0.498481914882013 -0.4308470355886653 L 0.7312087019844677 -0.4308470355886653 L 0.7312087019844677 -0.6635437662805428 L 0.498481914882013 -0.6635437662805428 Z" fill="url(#gradient-98fb626c-28ca-45d2-9785-a6511dd28192_0)" transform="matrix(1,0,0,1,0,0)" fill-rule="evenodd"></path></g></g></g><defs><clipPath id="SvgjsClipPath1048"><path d=" M -0.6650618513985302 -0.896270553382998 h 1.396270553382998 v 1.396270553382998 h -1.396270553382998 Z"></path></clipPath><clipPath id="SvgjsClipPath104619b03b18-638f-47f3-9096-4861f6ff75cd"><path d=" M -0.6650618513985302 -0.896270553382998 L 0.7312087019844677 -0.896270553382998 L 0.7312087019844677 0.5 L -0.6650618513985302 0.5 Z"></path></clipPath><linearGradient id="gradient-98fb626c-28ca-45d2-9785-a6511dd28192_0" x1="0" x2="1" y1="0" y2="1"><stop stop-color="#225777" offset="0"></stop><stop stop-color="#173054" offset="1"></stop></linearGradient></defs></svg>